<mxfile host="app.diagrams.net" agent="Mozilla/5.0 (Windows NT 10.0; Win64; x64) AppleWebKit/537.36 (KHTML, like Gecko) Chrome/129.0.0.0 Safari/537.36" version="24.9.0">
  <diagram id="C5RBs43oDa-KdzZeNtuy" name="Page-1">
    <mxGraphModel dx="441" dy="218" grid="1" gridSize="10" guides="1" tooltips="1" connect="1" arrows="1" fold="1" page="1" pageScale="1" pageWidth="827" pageHeight="1169" math="0" shadow="0">
      <root>
        <mxCell id="WIyWlLk6GJQsqaUBKTNV-0" />
        <mxCell id="WIyWlLk6GJQsqaUBKTNV-1" parent="WIyWlLk6GJQsqaUBKTNV-0" />
        <mxCell id="FONI7bBfuohiBBE2uJqY-15" value="SOFITEL" style="swimlane;fontStyle=1;align=center;verticalAlign=top;childLayout=stackLayout;horizontal=1;startSize=26;horizontalStack=0;resizeParent=1;resizeParentMax=0;resizeLast=0;collapsible=1;marginBottom=0;whiteSpace=wrap;html=1;" vertex="1" parent="WIyWlLk6GJQsqaUBKTNV-1">
          <mxGeometry x="460.5" y="220" width="219" height="120" as="geometry" />
        </mxCell>
        <mxCell id="FONI7bBfuohiBBE2uJqY-16" value="- Sodem: int&lt;div&gt;&lt;br/&gt;&lt;/div&gt;" style="text;strokeColor=none;fillColor=none;align=left;verticalAlign=top;spacingLeft=4;spacingRight=4;overflow=hidden;rotatable=0;points=[[0,0.5],[1,0.5]];portConstraint=eastwest;whiteSpace=wrap;html=1;" vertex="1" parent="FONI7bBfuohiBBE2uJqY-15">
          <mxGeometry y="26" width="219" height="24" as="geometry" />
        </mxCell>
        <mxCell id="FONI7bBfuohiBBE2uJqY-17" value="" style="line;strokeWidth=1;fillColor=none;align=left;verticalAlign=middle;spacingTop=-1;spacingLeft=3;spacingRight=3;rotatable=0;labelPosition=right;points=[];portConstraint=eastwest;strokeColor=inherit;" vertex="1" parent="FONI7bBfuohiBBE2uJqY-15">
          <mxGeometry y="50" width="219" height="8" as="geometry" />
        </mxCell>
        <mxCell id="FONI7bBfuohiBBE2uJqY-18" value="+ SOFITEL()&lt;br&gt;+ SOFITEL(Sodem: int)&lt;br&gt;+ Doanhthu(): int&lt;br&gt;&lt;div&gt;&lt;br&gt;&lt;/div&gt;" style="text;strokeColor=none;fillColor=none;align=left;verticalAlign=top;spacingLeft=4;spacingRight=4;overflow=hidden;rotatable=0;points=[[0,0.5],[1,0.5]];portConstraint=eastwest;whiteSpace=wrap;html=1;" vertex="1" parent="FONI7bBfuohiBBE2uJqY-15">
          <mxGeometry y="58" width="219" height="62" as="geometry" />
        </mxCell>
        <mxCell id="FONI7bBfuohiBBE2uJqY-19" value="PREMIUM" style="swimlane;fontStyle=1;align=center;verticalAlign=top;childLayout=stackLayout;horizontal=1;startSize=26;horizontalStack=0;resizeParent=1;resizeParentMax=0;resizeLast=0;collapsible=1;marginBottom=0;whiteSpace=wrap;html=1;" vertex="1" parent="WIyWlLk6GJQsqaUBKTNV-1">
          <mxGeometry x="780" y="360" width="240" height="120" as="geometry" />
        </mxCell>
        <mxCell id="FONI7bBfuohiBBE2uJqY-20" value="- Phi_dich_vu: int" style="text;strokeColor=none;fillColor=none;align=left;verticalAlign=top;spacingLeft=4;spacingRight=4;overflow=hidden;rotatable=0;points=[[0,0.5],[1,0.5]];portConstraint=eastwest;whiteSpace=wrap;html=1;" vertex="1" parent="FONI7bBfuohiBBE2uJqY-19">
          <mxGeometry y="26" width="240" height="24" as="geometry" />
        </mxCell>
        <mxCell id="FONI7bBfuohiBBE2uJqY-21" value="" style="line;strokeWidth=1;fillColor=none;align=left;verticalAlign=middle;spacingTop=-1;spacingLeft=3;spacingRight=3;rotatable=0;labelPosition=right;points=[];portConstraint=eastwest;strokeColor=inherit;" vertex="1" parent="FONI7bBfuohiBBE2uJqY-19">
          <mxGeometry y="50" width="240" height="8" as="geometry" />
        </mxCell>
        <mxCell id="FONI7bBfuohiBBE2uJqY-22" value="+ PREMIUM()&lt;br&gt;+ PREMIUM(Sodem: int, phi_dv: int)&lt;br&gt;+ Doanhthu(): int" style="text;strokeColor=none;fillColor=none;align=left;verticalAlign=top;spacingLeft=4;spacingRight=4;overflow=hidden;rotatable=0;points=[[0,0.5],[1,0.5]];portConstraint=eastwest;whiteSpace=wrap;html=1;" vertex="1" parent="FONI7bBfuohiBBE2uJqY-19">
          <mxGeometry y="58" width="240" height="62" as="geometry" />
        </mxCell>
        <mxCell id="FONI7bBfuohiBBE2uJqY-23" value="DELUXE" style="swimlane;fontStyle=1;align=center;verticalAlign=top;childLayout=stackLayout;horizontal=1;startSize=26;horizontalStack=0;resizeParent=1;resizeParentMax=0;resizeLast=0;collapsible=1;marginBottom=0;whiteSpace=wrap;html=1;" vertex="1" parent="WIyWlLk6GJQsqaUBKTNV-1">
          <mxGeometry x="420" y="500" width="300" height="140" as="geometry" />
        </mxCell>
        <mxCell id="FONI7bBfuohiBBE2uJqY-24" value="- Phi_dich_vu: int&lt;div&gt;- Phi_phuc_vu: int&lt;/div&gt;" style="text;strokeColor=none;fillColor=none;align=left;verticalAlign=top;spacingLeft=4;spacingRight=4;overflow=hidden;rotatable=0;points=[[0,0.5],[1,0.5]];portConstraint=eastwest;whiteSpace=wrap;html=1;" vertex="1" parent="FONI7bBfuohiBBE2uJqY-23">
          <mxGeometry y="26" width="300" height="44" as="geometry" />
        </mxCell>
        <mxCell id="FONI7bBfuohiBBE2uJqY-25" value="" style="line;strokeWidth=1;fillColor=none;align=left;verticalAlign=middle;spacingTop=-1;spacingLeft=3;spacingRight=3;rotatable=0;labelPosition=right;points=[];portConstraint=eastwest;strokeColor=inherit;" vertex="1" parent="FONI7bBfuohiBBE2uJqY-23">
          <mxGeometry y="70" width="300" height="8" as="geometry" />
        </mxCell>
        <mxCell id="FONI7bBfuohiBBE2uJqY-26" value="+ DELUXE()&lt;br&gt;+ DELUXE(Sodem: int, phi_dv: int, phi_pv: int)&lt;br&gt;+ Doanhthu(): int" style="text;strokeColor=none;fillColor=none;align=left;verticalAlign=top;spacingLeft=4;spacingRight=4;overflow=hidden;rotatable=0;points=[[0,0.5],[1,0.5]];portConstraint=eastwest;whiteSpace=wrap;html=1;" vertex="1" parent="FONI7bBfuohiBBE2uJqY-23">
          <mxGeometry y="78" width="300" height="62" as="geometry" />
        </mxCell>
        <mxCell id="FONI7bBfuohiBBE2uJqY-27" value="" style="endArrow=block;endSize=16;endFill=0;html=1;rounded=0;entryX=0.466;entryY=0.973;entryDx=0;entryDy=0;entryPerimeter=0;exitX=0.479;exitY=-0.001;exitDx=0;exitDy=0;exitPerimeter=0;" edge="1" parent="WIyWlLk6GJQsqaUBKTNV-1" source="FONI7bBfuohiBBE2uJqY-23" target="FONI7bBfuohiBBE2uJqY-18">
          <mxGeometry width="160" relative="1" as="geometry">
            <mxPoint x="565" y="450" as="sourcePoint" />
            <mxPoint x="565" y="380" as="targetPoint" />
          </mxGeometry>
        </mxCell>
        <mxCell id="FONI7bBfuohiBBE2uJqY-30" value="BUSINESS" style="swimlane;fontStyle=1;align=center;verticalAlign=top;childLayout=stackLayout;horizontal=1;startSize=26;horizontalStack=0;resizeParent=1;resizeParentMax=0;resizeLast=0;collapsible=1;marginBottom=0;whiteSpace=wrap;html=1;" vertex="1" parent="WIyWlLk6GJQsqaUBKTNV-1">
          <mxGeometry x="120" y="360" width="240" height="120" as="geometry" />
        </mxCell>
        <mxCell id="FONI7bBfuohiBBE2uJqY-31" value="&amp;nbsp;" style="text;strokeColor=none;fillColor=none;align=left;verticalAlign=top;spacingLeft=4;spacingRight=4;overflow=hidden;rotatable=0;points=[[0,0.5],[1,0.5]];portConstraint=eastwest;whiteSpace=wrap;html=1;" vertex="1" parent="FONI7bBfuohiBBE2uJqY-30">
          <mxGeometry y="26" width="240" height="24" as="geometry" />
        </mxCell>
        <mxCell id="FONI7bBfuohiBBE2uJqY-32" value="" style="line;strokeWidth=1;fillColor=none;align=left;verticalAlign=middle;spacingTop=-1;spacingLeft=3;spacingRight=3;rotatable=0;labelPosition=right;points=[];portConstraint=eastwest;strokeColor=inherit;" vertex="1" parent="FONI7bBfuohiBBE2uJqY-30">
          <mxGeometry y="50" width="240" height="8" as="geometry" />
        </mxCell>
        <mxCell id="FONI7bBfuohiBBE2uJqY-33" value="+ BUSINESS()&lt;br&gt;+ BUSINESS(Sodem: int)&lt;br&gt;+ Doanhthu(): int&lt;br&gt;&lt;div&gt;&lt;br&gt;&lt;/div&gt;" style="text;strokeColor=none;fillColor=none;align=left;verticalAlign=top;spacingLeft=4;spacingRight=4;overflow=hidden;rotatable=0;points=[[0,0.5],[1,0.5]];portConstraint=eastwest;whiteSpace=wrap;html=1;" vertex="1" parent="FONI7bBfuohiBBE2uJqY-30">
          <mxGeometry y="58" width="240" height="62" as="geometry" />
        </mxCell>
        <mxCell id="FONI7bBfuohiBBE2uJqY-34" value="" style="endArrow=block;endSize=16;endFill=0;html=1;rounded=0;exitX=0.5;exitY=0;exitDx=0;exitDy=0;" edge="1" parent="WIyWlLk6GJQsqaUBKTNV-1" source="FONI7bBfuohiBBE2uJqY-30">
          <mxGeometry width="160" relative="1" as="geometry">
            <mxPoint x="240" y="281" as="sourcePoint" />
            <mxPoint x="460.5" y="281.37" as="targetPoint" />
            <Array as="points">
              <mxPoint x="240" y="280" />
              <mxPoint x="460.5" y="281.37" />
            </Array>
          </mxGeometry>
        </mxCell>
        <mxCell id="FONI7bBfuohiBBE2uJqY-36" value="" style="endArrow=block;endSize=16;endFill=0;html=1;rounded=0;exitX=0.5;exitY=0;exitDx=0;exitDy=0;" edge="1" parent="WIyWlLk6GJQsqaUBKTNV-1" source="FONI7bBfuohiBBE2uJqY-19">
          <mxGeometry width="160" relative="1" as="geometry">
            <mxPoint x="900" y="280" as="sourcePoint" />
            <mxPoint x="680" y="280" as="targetPoint" />
            <Array as="points">
              <mxPoint x="900" y="280" />
            </Array>
          </mxGeometry>
        </mxCell>
      </root>
    </mxGraphModel>
  </diagram>
</mxfile>
